<svg xmlns="http://www.w3.org/2000/svg" xmlns:xlink="http://www.w3.org/1999/xlink" width="304" zoomAndPan="magnify" viewBox="0 0 228 38.999999" height="52" preserveAspectRatio="xMidYMid meet" version="1.0"><defs><g/><clipPath id="7e94492f5c"><path d="M 4.773438 7.046875 L 38.613281 7.046875 L 38.613281 35.226562 L 4.773438 35.226562 Z M 4.773438 7.046875 " clip-rule="nonzero"/></clipPath><clipPath id="4ad8692a10"><path d="M 7.800781 26.988281 L 17.976562 34.621094 C 18.828125 35.257812 19.96875 35.359375 20.917969 34.886719 C 21.871094 34.410156 22.472656 33.4375 22.472656 32.371094 C 22.472656 29.269531 24.988281 26.753906 28.089844 26.753906 L 32.992188 26.753906 C 36.097656 26.753906 38.613281 24.238281 38.613281 21.136719 C 38.613281 18.035156 36.097656 15.519531 32.992188 15.519531 L 28.089844 15.519531 C 24.988281 15.519531 22.472656 13.003906 22.472656 9.902344 C 22.472656 8.835938 21.871094 7.863281 20.917969 7.390625 C 19.96875 6.914062 18.828125 7.015625 17.976562 7.65625 L 7.800781 15.289062 C 5.957031 16.667969 4.875 18.835938 4.875 21.136719 C 4.875 23.4375 5.957031 25.605469 7.800781 26.988281 Z M 7.800781 26.988281 " clip-rule="nonzero"/></clipPath><clipPath id="10fa39f75b"><path d="M 189.386719 7.046875 L 223.226562 7.046875 L 223.226562 35.226562 L 189.386719 35.226562 Z M 189.386719 7.046875 " clip-rule="nonzero"/></clipPath><clipPath id="8f65ab4f00"><path d="M 220.199219 15.289062 L 210.023438 7.65625 C 209.171875 7.015625 208.03125 6.914062 207.082031 7.390625 C 206.128906 7.863281 205.527344 8.835938 205.527344 9.902344 C 205.527344 13.003906 203.011719 15.519531 199.910156 15.519531 L 195.007812 15.519531 C 191.902344 15.519531 189.386719 18.035156 189.386719 21.136719 C 189.386719 24.238281 191.902344 26.753906 195.007812 26.753906 L 199.910156 26.753906 C 203.011719 26.753906 205.527344 29.269531 205.527344 32.371094 C 205.527344 33.4375 206.128906 34.410156 207.082031 34.886719 C 208.03125 35.359375 209.171875 35.257812 210.023438 34.621094 L 220.199219 26.988281 C 222.042969 25.605469 223.125 23.4375 223.125 21.136719 C 223.125 18.835938 222.042969 16.667969 220.199219 15.289062 Z M 220.199219 15.289062 " clip-rule="nonzero"/></clipPath></defs><g clip-path="url(#7e94492f5c)"><g clip-path="url(#4ad8692a10)"><path fill="#ffbd59" d="M 38.613281 37.992188 L 0.03125 37.992188 L 0.03125 4.285156 L 38.613281 4.285156 Z M 38.613281 37.992188 " fill-opacity="1" fill-rule="nonzero"/></g></g><g fill="#ffbd59" fill-opacity="1"><g transform="translate(42.479462, 21.183999)"><g><path d="M 13.6875 -13.3125 C 13.78125 -12.46875 13.785156 -11.550781 13.703125 -10.5625 C 13.628906 -9.570312 13.453125 -8.582031 13.171875 -7.59375 C 12.890625 -6.601562 12.492188 -5.679688 11.984375 -4.828125 C 11.484375 -3.984375 10.863281 -3.265625 10.125 -2.671875 C 9.382812 -2.085938 8.519531 -1.710938 7.53125 -1.546875 C 6.5 -1.367188 5.617188 -1.445312 4.890625 -1.78125 C 4.171875 -2.125 3.570312 -2.632812 3.09375 -3.3125 C 2.625 -3.988281 2.25 -4.773438 1.96875 -5.671875 C 1.6875 -6.566406 1.484375 -7.492188 1.359375 -8.453125 C 1.242188 -9.421875 1.179688 -10.347656 1.171875 -11.234375 C 1.171875 -12.117188 1.191406 -12.890625 1.234375 -13.546875 C 1.265625 -14.003906 1.410156 -14.363281 1.671875 -14.625 C 1.929688 -14.894531 2.234375 -15.078125 2.578125 -15.171875 C 2.929688 -15.265625 3.28125 -15.265625 3.625 -15.171875 C 3.96875 -15.078125 4.25 -14.894531 4.46875 -14.625 C 4.6875 -14.363281 4.78125 -14.003906 4.75 -13.546875 C 4.738281 -13.316406 4.722656 -12.925781 4.703125 -12.375 C 4.691406 -11.820312 4.703125 -11.1875 4.734375 -10.46875 C 4.765625 -9.75 4.828125 -9.03125 4.921875 -8.3125 C 5.023438 -7.59375 5.175781 -6.953125 5.375 -6.390625 C 5.570312 -5.828125 5.832031 -5.425781 6.15625 -5.1875 C 6.476562 -4.945312 6.890625 -4.941406 7.390625 -5.171875 C 8.078125 -5.484375 8.625 -5.960938 9.03125 -6.609375 C 9.4375 -7.253906 9.734375 -7.972656 9.921875 -8.765625 C 10.109375 -9.566406 10.21875 -10.363281 10.25 -11.15625 C 10.28125 -11.957031 10.257812 -12.675781 10.1875 -13.3125 C 10.125 -13.769531 10.191406 -14.128906 10.390625 -14.390625 C 10.597656 -14.660156 10.867188 -14.835938 11.203125 -14.921875 C 11.535156 -15.003906 11.878906 -15.003906 12.234375 -14.921875 C 12.597656 -14.835938 12.914062 -14.65625 13.1875 -14.375 C 13.457031 -14.101562 13.625 -13.75 13.6875 -13.3125 Z M 13.6875 -13.3125 "/></g></g></g><g fill="#ffbd59" fill-opacity="1"><g transform="translate(57.411253, 21.183999)"><g><path d="M 10.296875 -14.203125 C 10.359375 -14.660156 10.519531 -14.988281 10.78125 -15.1875 C 11.050781 -15.394531 11.359375 -15.492188 11.703125 -15.484375 C 12.054688 -15.472656 12.394531 -15.378906 12.71875 -15.203125 C 13.050781 -15.023438 13.3125 -14.765625 13.5 -14.421875 C 13.6875 -14.085938 13.75 -13.703125 13.6875 -13.265625 C 13.050781 -8.960938 12.257812 -4.6875 11.3125 -0.4375 C 11.226562 -0.101562 11.050781 0.171875 10.78125 0.390625 C 10.507812 0.609375 10.191406 0.742188 9.828125 0.796875 C 9.472656 0.859375 9.132812 0.820312 8.8125 0.6875 C 8.488281 0.550781 8.25 0.316406 8.09375 -0.015625 C 7.738281 -0.878906 7.375 -1.734375 7 -2.578125 C 6.625 -3.429688 6.25 -4.289062 5.875 -5.15625 C 5.644531 -4.132812 5.421875 -3.113281 5.203125 -2.09375 C 4.984375 -1.070312 4.78125 -0.046875 4.59375 0.984375 C 4.507812 1.421875 4.328125 1.738281 4.046875 1.9375 C 3.765625 2.144531 3.445312 2.25 3.09375 2.25 C 2.75 2.25 2.414062 2.15625 2.09375 1.96875 C 1.769531 1.78125 1.519531 1.519531 1.34375 1.1875 C 1.164062 0.863281 1.125 0.484375 1.21875 0.046875 C 1.90625 -3.671875 2.75 -7.351562 3.75 -11 C 3.84375 -11.34375 4.03125 -11.625 4.3125 -11.84375 C 4.59375 -12.0625 4.90625 -12.203125 5.25 -12.265625 C 5.601562 -12.328125 5.9375 -12.289062 6.25 -12.15625 C 6.5625 -12.019531 6.796875 -11.773438 6.953125 -11.421875 L 9.015625 -6.671875 C 9.265625 -7.921875 9.492188 -9.171875 9.703125 -10.421875 C 9.910156 -11.679688 10.109375 -12.941406 10.296875 -14.203125 Z M 10.296875 -14.203125 "/></g></g></g><g fill="#ffbd59" fill-opacity="1"><g transform="translate(72.296235, 21.183999)"><g><path d="M 12.125 -10.28125 C 12.164062 -8.71875 12.203125 -7.15625 12.234375 -5.59375 C 12.265625 -4.03125 12.304688 -2.46875 12.359375 -0.90625 C 12.367188 -0.457031 12.257812 -0.0976562 12.03125 0.171875 C 11.800781 0.441406 11.515625 0.617188 11.171875 0.703125 C 10.828125 0.796875 10.476562 0.796875 10.125 0.703125 C 9.769531 0.609375 9.472656 0.425781 9.234375 0.15625 C 8.992188 -0.101562 8.863281 -0.457031 8.84375 -0.90625 C 8.832031 -1.375 8.820312 -1.84375 8.8125 -2.3125 C 8.800781 -2.78125 8.789062 -3.25 8.78125 -3.71875 L 5.265625 -3.84375 C 5.140625 -3.257812 5.019531 -2.671875 4.90625 -2.078125 C 4.800781 -1.484375 4.695312 -0.890625 4.59375 -0.296875 C 4.507812 0.128906 4.332031 0.441406 4.0625 0.640625 C 3.789062 0.847656 3.472656 0.953125 3.109375 0.953125 C 2.753906 0.953125 2.414062 0.859375 2.09375 0.671875 C 1.769531 0.484375 1.519531 0.226562 1.34375 -0.09375 C 1.164062 -0.414062 1.113281 -0.796875 1.1875 -1.234375 C 1.46875 -2.765625 1.785156 -4.28125 2.140625 -5.78125 C 2.492188 -7.28125 2.988281 -8.738281 3.625 -10.15625 C 3.9375 -10.863281 4.332031 -11.617188 4.8125 -12.421875 C 5.300781 -13.234375 5.851562 -13.976562 6.46875 -14.65625 C 7.082031 -15.34375 7.765625 -15.847656 8.515625 -16.171875 C 9.222656 -16.472656 9.796875 -16.53125 10.234375 -16.34375 C 10.671875 -16.15625 11.015625 -15.8125 11.265625 -15.3125 C 11.515625 -14.820312 11.695312 -14.265625 11.8125 -13.640625 C 11.925781 -13.015625 12 -12.398438 12.03125 -11.796875 C 12.070312 -11.191406 12.101562 -10.6875 12.125 -10.28125 Z M 6.359375 -7.703125 C 6.347656 -7.640625 6.328125 -7.578125 6.296875 -7.515625 C 6.273438 -7.453125 6.25 -7.390625 6.21875 -7.328125 C 6.644531 -7.304688 7.0625 -7.285156 7.46875 -7.265625 C 7.875 -7.253906 8.28125 -7.242188 8.6875 -7.234375 C 8.664062 -7.734375 8.648438 -8.234375 8.640625 -8.734375 C 8.640625 -9.242188 8.628906 -9.757812 8.609375 -10.28125 C 8.597656 -10.476562 8.59375 -10.691406 8.59375 -10.921875 C 8.59375 -11.148438 8.59375 -11.378906 8.59375 -11.609375 C 8.320312 -11.296875 8.09375 -10.992188 7.90625 -10.703125 C 7.59375 -10.234375 7.304688 -9.75 7.046875 -9.25 C 6.796875 -8.75 6.566406 -8.234375 6.359375 -7.703125 Z M 6.359375 -7.703125 "/></g></g></g><g fill="#ffbd59" fill-opacity="1"><g transform="translate(85.823784, 21.183999)"><g/></g></g><g fill="#ffbd59" fill-opacity="1"><g transform="translate(92.938621, 21.183999)"><g><path d="M 10.046875 -16.390625 C 10.117188 -16.835938 10.296875 -17.160156 10.578125 -17.359375 C 10.859375 -17.566406 11.171875 -17.664062 11.515625 -17.65625 C 11.867188 -17.644531 12.207031 -17.550781 12.53125 -17.375 C 12.851562 -17.195312 13.101562 -16.941406 13.28125 -16.609375 C 13.457031 -16.285156 13.5 -15.898438 13.40625 -15.453125 C 12.5625 -11.160156 11.988281 -6.828125 11.6875 -2.453125 C 11.65625 -2.003906 11.507812 -1.640625 11.25 -1.359375 C 10.988281 -1.085938 10.675781 -0.910156 10.3125 -0.828125 C 9.957031 -0.742188 9.613281 -0.742188 9.28125 -0.828125 C 8.945312 -0.910156 8.671875 -1.085938 8.453125 -1.359375 C 8.234375 -1.640625 8.140625 -2.003906 8.171875 -2.453125 C 8.210938 -3.191406 8.269531 -3.921875 8.34375 -4.640625 C 8.414062 -5.367188 8.488281 -6.097656 8.5625 -6.828125 L 5.359375 -6.828125 C 5.253906 -5.910156 5.144531 -4.988281 5.03125 -4.0625 C 4.925781 -3.132812 4.816406 -2.203125 4.703125 -1.265625 C 4.640625 -0.828125 4.472656 -0.472656 4.203125 -0.203125 C 3.941406 0.0546875 3.628906 0.234375 3.265625 0.328125 C 2.910156 0.421875 2.5625 0.421875 2.21875 0.328125 C 1.875 0.242188 1.597656 0.0664062 1.390625 -0.203125 C 1.191406 -0.472656 1.125 -0.828125 1.1875 -1.265625 C 1.332031 -2.554688 1.484375 -3.84375 1.640625 -5.125 C 1.796875 -6.414062 1.941406 -7.703125 2.078125 -8.984375 C 2.160156 -9.609375 2.238281 -10.226562 2.3125 -10.84375 C 2.394531 -11.457031 2.46875 -12.078125 2.53125 -12.703125 C 2.59375 -13.253906 2.640625 -13.832031 2.671875 -14.4375 C 2.710938 -15.050781 2.835938 -15.625 3.046875 -16.15625 C 3.203125 -16.570312 3.4375 -16.875 3.75 -17.0625 C 4.070312 -17.25 4.414062 -17.335938 4.78125 -17.328125 C 5.15625 -17.328125 5.492188 -17.234375 5.796875 -17.046875 C 6.109375 -16.867188 6.332031 -16.625 6.46875 -16.3125 C 6.601562 -16 6.582031 -15.632812 6.40625 -15.21875 C 6.21875 -14.695312 6.109375 -14.132812 6.078125 -13.53125 C 6.046875 -12.9375 6 -12.375 5.9375 -11.84375 C 5.90625 -11.59375 5.875 -11.34375 5.84375 -11.09375 C 5.820312 -10.84375 5.796875 -10.59375 5.765625 -10.34375 L 9.015625 -10.34375 C 9.148438 -11.351562 9.300781 -12.363281 9.46875 -13.375 C 9.644531 -14.382812 9.835938 -15.390625 10.046875 -16.390625 Z M 10.046875 -16.390625 "/></g></g></g><g fill="#ffbd59" fill-opacity="1"><g transform="translate(107.566159, 21.183999)"><g><path d="M 9.765625 -4.96875 C 10.210938 -4.945312 10.570312 -4.816406 10.84375 -4.578125 C 11.125 -4.335938 11.304688 -4.039062 11.390625 -3.6875 C 11.472656 -3.332031 11.472656 -2.976562 11.390625 -2.625 C 11.304688 -2.28125 11.125 -1.992188 10.84375 -1.765625 C 10.570312 -1.535156 10.210938 -1.4375 9.765625 -1.46875 C 8.703125 -1.5 7.640625 -1.488281 6.578125 -1.4375 C 5.515625 -1.394531 4.453125 -1.289062 3.390625 -1.125 C 3.066406 -1.0625 2.722656 -1.085938 2.359375 -1.203125 C 2.003906 -1.316406 1.703125 -1.503906 1.453125 -1.765625 C 1.210938 -2.035156 1.125 -2.382812 1.1875 -2.8125 C 1.457031 -4.976562 1.75 -7.132812 2.0625 -9.28125 C 2.382812 -11.4375 2.734375 -13.585938 3.109375 -15.734375 C 3.160156 -15.992188 3.253906 -16.226562 3.390625 -16.4375 C 3.515625 -16.65625 3.691406 -16.832031 3.921875 -16.96875 C 4.160156 -17.113281 4.453125 -17.191406 4.796875 -17.203125 C 6.484375 -17.265625 8.171875 -17.234375 9.859375 -17.109375 C 10.304688 -17.078125 10.664062 -16.929688 10.9375 -16.671875 C 11.21875 -16.421875 11.398438 -16.117188 11.484375 -15.765625 C 11.566406 -15.410156 11.566406 -15.0625 11.484375 -14.71875 C 11.398438 -14.375 11.21875 -14.09375 10.9375 -13.875 C 10.664062 -13.65625 10.304688 -13.5625 9.859375 -13.59375 C 8.703125 -13.675781 7.519531 -13.71875 6.3125 -13.71875 C 6.238281 -13.257812 6.160156 -12.804688 6.078125 -12.359375 C 6.003906 -11.910156 5.9375 -11.457031 5.875 -11 C 6.507812 -10.988281 7.125 -10.957031 7.71875 -10.90625 C 8.1875 -10.84375 8.597656 -10.660156 8.953125 -10.359375 C 9.304688 -10.066406 9.484375 -9.664062 9.484375 -9.15625 C 9.484375 -8.851562 9.398438 -8.5625 9.234375 -8.28125 C 9.066406 -8 8.847656 -7.769531 8.578125 -7.59375 C 8.316406 -7.425781 8.03125 -7.359375 7.71875 -7.390625 C 6.925781 -7.472656 6.132812 -7.503906 5.34375 -7.484375 C 5.28125 -7.046875 5.21875 -6.601562 5.15625 -6.15625 C 5.09375 -5.71875 5.03125 -5.273438 4.96875 -4.828125 C 5.757812 -4.898438 6.550781 -4.953125 7.34375 -4.984375 C 8.144531 -5.015625 8.953125 -5.007812 9.765625 -4.96875 Z M 9.765625 -4.96875 "/></g></g></g><g fill="#ffbd59" fill-opacity="1"><g transform="translate(120.274565, 21.183999)"><g><path d="M 13.3125 -2.21875 C 13.582031 -1.863281 13.691406 -1.515625 13.640625 -1.171875 C 13.597656 -0.828125 13.453125 -0.535156 13.203125 -0.296875 C 12.953125 -0.0546875 12.648438 0.113281 12.296875 0.21875 C 11.941406 0.320312 11.582031 0.328125 11.21875 0.234375 C 10.851562 0.140625 10.539062 -0.0820312 10.28125 -0.4375 C 9.570312 -1.40625 8.785156 -2.300781 7.921875 -3.125 C 7.054688 -3.945312 6.125 -4.6875 5.125 -5.34375 C 5.050781 -4.40625 4.976562 -3.472656 4.90625 -2.546875 C 4.832031 -1.628906 4.757812 -0.703125 4.6875 0.234375 C 4.65625 0.679688 4.507812 1.035156 4.25 1.296875 C 3.988281 1.566406 3.675781 1.75 3.3125 1.84375 C 2.957031 1.9375 2.613281 1.9375 2.28125 1.84375 C 1.945312 1.75 1.671875 1.566406 1.453125 1.296875 C 1.234375 1.035156 1.140625 0.679688 1.171875 0.234375 C 1.304688 -1.484375 1.410156 -3.222656 1.484375 -4.984375 C 1.566406 -6.742188 1.78125 -8.46875 2.125 -10.15625 C 2.300781 -11.019531 2.625 -11.851562 3.09375 -12.65625 C 3.5625 -13.46875 4.15625 -14.144531 4.875 -14.6875 C 5.601562 -15.226562 6.453125 -15.515625 7.421875 -15.546875 C 8.085938 -15.578125 8.722656 -15.453125 9.328125 -15.171875 C 9.929688 -14.890625 10.441406 -14.5 10.859375 -14 C 11.285156 -13.507812 11.570312 -12.945312 11.71875 -12.3125 C 11.863281 -11.6875 11.828125 -11.039062 11.609375 -10.375 C 11.390625 -9.71875 11.035156 -9.085938 10.546875 -8.484375 C 10.054688 -7.878906 9.488281 -7.359375 8.84375 -6.921875 C 10.519531 -5.585938 12.007812 -4.019531 13.3125 -2.21875 Z M 8.3125 -11.609375 C 8.25 -11.921875 8.125 -12.09375 7.9375 -12.125 C 7.757812 -12.164062 7.554688 -12.113281 7.328125 -11.96875 C 7.109375 -11.832031 6.890625 -11.65625 6.671875 -11.4375 C 6.453125 -11.226562 6.265625 -11.015625 6.109375 -10.796875 C 5.953125 -10.585938 5.851562 -10.4375 5.8125 -10.34375 C 5.6875 -10 5.578125 -9.609375 5.484375 -9.171875 C 5.785156 -9.222656 6.0625 -9.320312 6.3125 -9.46875 C 6.5625 -9.613281 6.804688 -9.796875 7.046875 -10.015625 C 7.140625 -10.109375 7.296875 -10.253906 7.515625 -10.453125 C 7.734375 -10.660156 7.925781 -10.875 8.09375 -11.09375 C 8.269531 -11.3125 8.34375 -11.484375 8.3125 -11.609375 Z M 8.3125 -11.609375 "/></g></g></g><g fill="#ffbd59" fill-opacity="1"><g transform="translate(135.08933, 21.183999)"><g/></g></g><g fill="#ffbd59" fill-opacity="1"><g transform="translate(142.204171, 21.183999)"><g><path d="M 5.078125 -16.78125 C 5.992188 -16.613281 6.878906 -16.359375 7.734375 -16.015625 C 8.597656 -15.671875 9.398438 -15.171875 10.140625 -14.515625 C 10.929688 -13.796875 11.546875 -12.941406 11.984375 -11.953125 C 12.421875 -10.960938 12.578125 -9.925781 12.453125 -8.84375 C 12.335938 -7.925781 12.039062 -7.078125 11.5625 -6.296875 C 11.09375 -5.515625 10.515625 -4.828125 9.828125 -4.234375 C 9.066406 -3.578125 8.164062 -3.050781 7.125 -2.65625 C 6.09375 -2.257812 5.097656 -1.90625 4.140625 -1.59375 C 3.878906 -1.507812 3.609375 -1.4375 3.328125 -1.375 C 3.054688 -1.3125 2.789062 -1.296875 2.53125 -1.328125 C 2.15625 -1.390625 1.828125 -1.566406 1.546875 -1.859375 C 1.273438 -2.160156 1.148438 -2.5 1.171875 -2.875 C 1.273438 -7.125 1.484375 -11.382812 1.796875 -15.65625 C 1.828125 -16.144531 1.988281 -16.484375 2.28125 -16.671875 C 2.570312 -16.859375 2.914062 -16.957031 3.3125 -16.96875 C 3.707031 -16.988281 4.09375 -16.96875 4.46875 -16.90625 C 4.675781 -16.875 4.878906 -16.832031 5.078125 -16.78125 Z M 8.828125 -8.640625 C 9.046875 -9.273438 9.078125 -9.847656 8.921875 -10.359375 C 8.773438 -10.867188 8.503906 -11.3125 8.109375 -11.6875 C 7.722656 -12.070312 7.265625 -12.390625 6.734375 -12.640625 C 6.203125 -12.890625 5.664062 -13.066406 5.125 -13.171875 C 4.96875 -10.597656 4.84375 -8.054688 4.75 -5.546875 C 5.332031 -5.734375 5.890625 -5.945312 6.421875 -6.1875 C 6.960938 -6.425781 7.441406 -6.738281 7.859375 -7.125 C 8.285156 -7.519531 8.609375 -8.023438 8.828125 -8.640625 Z M 8.828125 -8.640625 "/></g></g></g><g fill="#ffbd59" fill-opacity="1"><g transform="translate(155.872143, 21.183999)"><g><path d="M 13.015625 -14.90625 C 13.390625 -14.300781 13.644531 -13.617188 13.78125 -12.859375 C 13.925781 -12.097656 13.988281 -11.332031 13.96875 -10.5625 C 13.957031 -9.789062 13.894531 -9.070312 13.78125 -8.40625 C 13.625 -7.375 13.300781 -6.394531 12.8125 -5.46875 C 12.332031 -4.550781 11.691406 -3.757812 10.890625 -3.09375 C 10.109375 -2.445312 9.203125 -1.972656 8.171875 -1.671875 C 7.140625 -1.378906 6.132812 -1.390625 5.15625 -1.703125 C 4.5 -1.910156 3.925781 -2.25 3.4375 -2.71875 C 2.957031 -3.1875 2.550781 -3.71875 2.21875 -4.3125 C 1.894531 -4.914062 1.65625 -5.53125 1.5 -6.15625 C 1.3125 -6.84375 1.203125 -7.632812 1.171875 -8.53125 C 1.140625 -9.425781 1.203125 -10.34375 1.359375 -11.28125 C 1.515625 -12.21875 1.769531 -13.09375 2.125 -13.90625 C 2.488281 -14.71875 2.972656 -15.390625 3.578125 -15.921875 C 4.203125 -16.554688 4.953125 -17.003906 5.828125 -17.265625 C 6.703125 -17.535156 7.597656 -17.628906 8.515625 -17.546875 C 9.441406 -17.460938 10.300781 -17.195312 11.09375 -16.75 C 11.882812 -16.300781 12.523438 -15.6875 13.015625 -14.90625 Z M 8.75 -5.8125 C 9.28125 -6.300781 9.675781 -6.878906 9.9375 -7.546875 C 10.195312 -8.210938 10.359375 -8.90625 10.421875 -9.625 C 10.484375 -10.351562 10.46875 -11.0625 10.375 -11.75 C 10.28125 -12.4375 10.007812 -13 9.5625 -13.4375 C 9.113281 -13.875 8.523438 -14.082031 7.796875 -14.0625 C 7.390625 -14.0625 6.992188 -13.957031 6.609375 -13.75 C 6.222656 -13.550781 5.910156 -13.289062 5.671875 -12.96875 C 5.390625 -12.570312 5.1875 -12.101562 5.0625 -11.5625 C 4.9375 -11.019531 4.84375 -10.515625 4.78125 -10.046875 C 4.632812 -8.992188 4.6875 -7.960938 4.9375 -6.953125 C 5.019531 -6.648438 5.125 -6.351562 5.25 -6.0625 C 5.382812 -5.769531 5.578125 -5.53125 5.828125 -5.34375 C 6.234375 -5.039062 6.695312 -4.929688 7.21875 -5.015625 C 7.738281 -5.109375 8.195312 -5.316406 8.59375 -5.640625 C 8.632812 -5.691406 8.6875 -5.75 8.75 -5.8125 Z M 8.75 -5.8125 "/></g></g></g><g fill="#ffbd59" fill-opacity="1"><g transform="translate(171.03797, 21.183999)"><g><path d="M 10.421875 -5.671875 C 10.859375 -5.773438 11.234375 -5.753906 11.546875 -5.609375 C 11.867188 -5.460938 12.117188 -5.234375 12.296875 -4.921875 C 12.472656 -4.609375 12.566406 -4.265625 12.578125 -3.890625 C 12.585938 -3.523438 12.492188 -3.191406 12.296875 -2.890625 C 12.097656 -2.597656 11.785156 -2.390625 11.359375 -2.265625 C 10.554688 -2.046875 9.738281 -1.878906 8.90625 -1.765625 C 8.070312 -1.648438 7.242188 -1.644531 6.421875 -1.75 C 5.609375 -1.863281 4.828125 -2.128906 4.078125 -2.546875 C 3.109375 -3.097656 2.367188 -3.851562 1.859375 -4.8125 C 1.347656 -5.78125 1.117188 -6.828125 1.171875 -7.953125 C 1.234375 -9.046875 1.503906 -10.09375 1.984375 -11.09375 C 2.472656 -12.09375 3.117188 -12.976562 3.921875 -13.75 C 4.722656 -14.519531 5.632812 -15.113281 6.65625 -15.53125 C 7.675781 -15.945312 8.742188 -16.109375 9.859375 -16.015625 C 10.304688 -15.984375 10.664062 -15.835938 10.9375 -15.578125 C 11.21875 -15.316406 11.398438 -15.003906 11.484375 -14.640625 C 11.566406 -14.285156 11.566406 -13.9375 11.484375 -13.59375 C 11.398438 -13.25 11.21875 -12.972656 10.9375 -12.765625 C 10.664062 -12.554688 10.304688 -12.46875 9.859375 -12.5 C 9.046875 -12.5625 8.273438 -12.410156 7.546875 -12.046875 C 6.816406 -11.679688 6.203125 -11.171875 5.703125 -10.515625 C 5.210938 -9.867188 4.894531 -9.140625 4.75 -8.328125 C 4.613281 -7.628906 4.648438 -7.0625 4.859375 -6.625 C 5.066406 -6.195312 5.378906 -5.878906 5.796875 -5.671875 C 6.222656 -5.460938 6.703125 -5.335938 7.234375 -5.296875 C 7.773438 -5.265625 8.320312 -5.28125 8.875 -5.34375 C 9.4375 -5.414062 9.953125 -5.523438 10.421875 -5.671875 Z M 10.421875 -5.671875 "/></g></g></g><g fill="#ffbd59" fill-opacity="1"><g transform="translate(45.672419, 36.024435)"><g><path d="M 7.75 -4.015625 C 7.0625 -4.191406 6.40625 -4.28125 5.78125 -4.28125 C 4.769531 -4.28125 4.128906 -4.007812 3.859375 -3.46875 C 3.773438 -3.300781 3.734375 -3.113281 3.734375 -2.90625 C 3.734375 -2.4375 3.859375 -2.082031 4.109375 -1.84375 C 4.347656 -1.601562 4.675781 -1.484375 5.09375 -1.484375 C 5.363281 -1.484375 5.59375 -1.539062 5.78125 -1.65625 C 5.957031 -1.757812 6.09375 -1.894531 6.1875 -2.0625 L 5.203125 -2.0625 L 5.25 -3.25 C 5.269531 -3.25 5.769531 -3.242188 6.75 -3.234375 C 7.726562 -3.222656 8.25 -3.207031 8.3125 -3.1875 L 8.3125 0 L 7.53125 0.046875 L 7.40625 -0.796875 C 7.164062 -0.503906 6.769531 -0.269531 6.21875 -0.09375 C 5.65625 0.09375 5.132812 0.1875 4.65625 0.1875 C 4.175781 0.1875 3.734375 0.148438 3.328125 0.078125 C 2.929688 0.00390625 2.5625 -0.113281 2.21875 -0.28125 C 1.875 -0.4375 1.578125 -0.632812 1.328125 -0.875 C 1.078125 -1.101562 0.878906 -1.382812 0.734375 -1.71875 C 0.585938 -2.050781 0.515625 -2.441406 0.515625 -2.890625 C 0.515625 -3.328125 0.609375 -3.734375 0.796875 -4.109375 C 0.972656 -4.484375 1.210938 -4.796875 1.515625 -5.046875 C 2.390625 -5.742188 3.703125 -6.09375 5.453125 -6.09375 C 5.742188 -6.09375 6.128906 -6.066406 6.609375 -6.015625 C 7.097656 -5.960938 7.476562 -5.898438 7.75 -5.828125 Z M 7.75 -4.015625 "/></g></g></g><g fill="#ffbd59" fill-opacity="1"><g transform="translate(54.710493, 36.024435)"><g><path d="M 1.03125 0.03125 L 0.609375 0.046875 C 0.597656 -0.078125 0.59375 -0.171875 0.59375 -0.234375 L 0.75 -3.9375 L 1.890625 -4.1875 L 2.359375 -3.359375 C 2.878906 -4.035156 3.398438 -4.375 3.921875 -4.375 C 4.140625 -4.375 4.367188 -4.328125 4.609375 -4.234375 C 4.835938 -4.148438 4.988281 -4.054688 5.0625 -3.953125 L 4.625 -2.765625 C 4.320312 -2.890625 4.023438 -2.953125 3.734375 -2.953125 C 3.441406 -2.953125 3.203125 -2.867188 3.015625 -2.703125 C 3.003906 -2.691406 2.992188 -2.6875 2.984375 -2.6875 L 2.984375 -2.671875 L 2.796875 -0.046875 Z M 1.03125 0.03125 "/></g></g></g><g fill="#ffbd59" fill-opacity="1"><g transform="translate(59.903892, 36.024435)"><g><path d="M 4.46875 -1.296875 C 4.632812 -1.515625 4.71875 -1.785156 4.71875 -2.109375 C 4.71875 -2.429688 4.628906 -2.691406 4.453125 -2.890625 C 4.265625 -3.078125 4.015625 -3.171875 3.703125 -3.171875 C 3.390625 -3.171875 3.148438 -3.0625 2.984375 -2.84375 C 2.828125 -2.625 2.75 -2.363281 2.75 -2.0625 C 2.75 -1.332031 3.070312 -0.96875 3.71875 -0.96875 C 4.039062 -0.96875 4.289062 -1.078125 4.46875 -1.296875 Z M 0.46875 -2.015625 C 0.46875 -3.609375 1.625 -4.40625 3.9375 -4.40625 C 4.789062 -4.40625 5.5 -4.207031 6.0625 -3.8125 C 6.34375 -3.625 6.5625 -3.390625 6.71875 -3.109375 C 6.863281 -2.828125 6.9375 -2.53125 6.9375 -2.21875 C 6.9375 -1.394531 6.660156 -0.789062 6.109375 -0.40625 C 5.546875 -0.03125 4.726562 0.15625 3.65625 0.15625 C 1.53125 0.15625 0.46875 -0.566406 0.46875 -2.015625 Z M 0.46875 -2.015625 "/></g></g></g><g fill="#ffbd59" fill-opacity="1"><g transform="translate(67.309523, 36.024435)"><g><path d="M 2.953125 -2.078125 C 2.953125 -1.359375 3.25 -1 3.84375 -1 C 4.164062 -1 4.40625 -1.109375 4.5625 -1.328125 C 4.6875 -1.484375 4.765625 -1.640625 4.796875 -1.796875 C 4.890625 -2.179688 4.9375 -2.742188 4.9375 -3.484375 L 4.9375 -4.140625 C 5.28125 -4.148438 6.0625 -4.171875 7.28125 -4.203125 C 7.28125 -4.054688 7.28125 -3.941406 7.28125 -3.859375 L 7.078125 -0.125 L 5.78125 0.0625 C 5.601562 -0.289062 5.472656 -0.570312 5.390625 -0.78125 C 5.117188 -0.476562 4.773438 -0.242188 4.359375 -0.078125 C 3.941406 0.078125 3.507812 0.15625 3.0625 0.15625 C 2.082031 0.144531 1.351562 -0.0976562 0.875 -0.578125 C 0.613281 -0.847656 0.484375 -1.210938 0.484375 -1.671875 C 0.484375 -2.128906 0.5 -2.613281 0.53125 -3.125 C 0.5625 -3.632812 0.578125 -3.957031 0.578125 -4.09375 C 0.671875 -4.09375 0.925781 -4.101562 1.34375 -4.125 C 1.757812 -4.132812 2.0625 -4.144531 2.25 -4.15625 L 3.0625 -4.203125 C 2.988281 -2.941406 2.953125 -2.234375 2.953125 -2.078125 Z M 2.953125 -2.078125 "/></g></g></g><g fill="#ffbd59" fill-opacity="1"><g transform="translate(75.196249, 36.024435)"><g><path d="M 4.6875 -1.359375 C 4.863281 -1.566406 4.953125 -1.804688 4.953125 -2.078125 C 4.953125 -2.359375 4.867188 -2.597656 4.703125 -2.796875 C 4.523438 -2.992188 4.28125 -3.09375 3.96875 -3.09375 C 3.757812 -3.09375 3.578125 -3.039062 3.421875 -2.9375 C 3.128906 -2.738281 2.984375 -2.445312 2.984375 -2.0625 C 2.984375 -1.789062 3.066406 -1.550781 3.234375 -1.34375 C 3.398438 -1.144531 3.640625 -1.046875 3.953125 -1.046875 C 4.253906 -1.046875 4.5 -1.148438 4.6875 -1.359375 Z M 2.859375 1.28125 C 1.710938 1.394531 0.957031 1.453125 0.59375 1.453125 L 0.5625 1.453125 C 0.550781 1.128906 0.546875 0.960938 0.546875 0.953125 L 0.75 -4.09375 C 0.800781 -4.132812 0.910156 -4.164062 1.078125 -4.1875 L 2.046875 -4.328125 L 2.484375 -3.515625 C 2.972656 -4.109375 3.785156 -4.40625 4.921875 -4.40625 C 5.390625 -4.40625 5.816406 -4.3125 6.203125 -4.125 C 6.578125 -3.945312 6.878906 -3.695312 7.109375 -3.375 C 7.328125 -3.050781 7.4375 -2.703125 7.4375 -2.328125 C 7.4375 -1.953125 7.359375 -1.609375 7.203125 -1.296875 C 7.046875 -0.984375 6.835938 -0.722656 6.578125 -0.515625 C 6.316406 -0.304688 6.015625 -0.144531 5.671875 -0.03125 C 5.335938 0.09375 4.992188 0.15625 4.640625 0.15625 C 3.960938 0.15625 3.390625 0.00390625 2.921875 -0.296875 L 2.921875 -0.265625 C 2.921875 -0.265625 2.910156 -0.0703125 2.890625 0.3125 C 2.867188 0.695312 2.859375 1.019531 2.859375 1.28125 Z M 2.859375 1.28125 "/></g></g></g><g fill="#ffbd59" fill-opacity="1"><g transform="translate(83.082975, 36.024435)"><g/></g></g><g fill="#ffbd59" fill-opacity="1"><g transform="translate(85.060828, 36.024435)"><g><path d="M 8.046875 0.03125 L 5.421875 0.03125 L 0.71875 0 L 0.796875 -1.4375 C 0.929688 -4.34375 1 -5.832031 1 -5.90625 C 1.332031 -5.925781 1.546875 -5.9375 1.640625 -5.9375 L 5.8125 -5.9375 C 6.726562 -5.9375 7.472656 -5.941406 8.046875 -5.953125 L 7.875 -4.390625 C 7.21875 -4.335938 5.898438 -4.3125 3.921875 -4.3125 C 3.910156 -4.238281 3.898438 -4.125 3.890625 -3.96875 C 3.878906 -3.8125 3.867188 -3.695312 3.859375 -3.625 C 4.648438 -3.632812 5.203125 -3.640625 5.515625 -3.640625 L 6.421875 -3.609375 C 6.421875 -3.492188 6.40625 -3.285156 6.375 -2.984375 C 6.332031 -2.691406 6.289062 -2.460938 6.25 -2.296875 C 6.207031 -2.285156 5.863281 -2.28125 5.21875 -2.28125 L 3.8125 -2.28125 L 3.765625 -1.484375 L 8.078125 -1.4375 C 8.078125 -0.914062 8.070312 -0.546875 8.0625 -0.328125 C 8.050781 -0.109375 8.046875 0.0078125 8.046875 0.03125 Z M 8.046875 0.03125 "/></g></g></g><g fill="#ffbd59" fill-opacity="1"><g transform="translate(93.482108, 36.024435)"><g><path d="M 1.859375 -0.375 C 1.242188 -2.03125 0.753906 -3.269531 0.390625 -4.09375 C 1.804688 -4.15625 2.550781 -4.1875 2.625 -4.1875 L 2.75 -4.1875 L 2.859375 -3.8125 C 3.109375 -2.96875 3.320312 -2.25 3.5 -1.65625 C 4.03125 -3.050781 4.363281 -3.890625 4.5 -4.171875 C 4.625 -4.179688 4.867188 -4.1875 5.234375 -4.1875 C 5.597656 -4.1875 6.097656 -4.175781 6.734375 -4.15625 L 6.40625 -3.546875 L 4.5625 0 C 3.726562 0.03125 2.984375 0.046875 2.328125 0.046875 L 2.03125 0.03125 Z M 1.859375 -0.375 "/></g></g></g><g fill="#ffbd59" fill-opacity="1"><g transform="translate(100.357294, 36.024435)"><g><path d="M 4.3125 -0.109375 C 3.976562 0.0664062 3.609375 0.15625 3.203125 0.15625 C 2.804688 0.15625 2.457031 0.113281 2.15625 0.03125 C 1.851562 -0.0507812 1.578125 -0.175781 1.328125 -0.34375 C 1.078125 -0.507812 0.875 -0.734375 0.71875 -1.015625 C 0.5625 -1.296875 0.484375 -1.617188 0.484375 -1.984375 C 0.484375 -2.359375 0.554688 -2.703125 0.703125 -3.015625 C 0.835938 -3.328125 1.023438 -3.582031 1.265625 -3.78125 C 1.742188 -4.195312 2.328125 -4.40625 3.015625 -4.40625 C 3.492188 -4.40625 3.890625 -4.34375 4.203125 -4.21875 C 4.503906 -4.09375 4.769531 -3.875 5 -3.5625 L 5.015625 -4.453125 L 6.875 -4.296875 L 6.859375 -0.09375 L 5.3125 0.015625 L 5.0625 -0.796875 C 4.882812 -0.515625 4.632812 -0.285156 4.3125 -0.109375 Z M 2.90625 -2.046875 C 2.90625 -1.785156 2.984375 -1.5625 3.140625 -1.375 C 3.296875 -1.1875 3.515625 -1.09375 3.796875 -1.09375 C 4.085938 -1.09375 4.316406 -1.175781 4.484375 -1.34375 C 4.640625 -1.507812 4.71875 -1.738281 4.71875 -2.03125 C 4.71875 -2.320312 4.640625 -2.550781 4.484375 -2.71875 C 4.316406 -2.894531 4.09375 -2.984375 3.8125 -2.984375 C 3.519531 -2.984375 3.296875 -2.890625 3.140625 -2.703125 C 2.984375 -2.523438 2.90625 -2.304688 2.90625 -2.046875 Z M 2.90625 -2.046875 "/></g></g></g><g fill="#ffbd59" fill-opacity="1"><g transform="translate(107.791705, 36.024435)"><g><path d="M 0.796875 -5.90625 L 3.234375 -6.03125 C 3.191406 -5.113281 3.144531 -4.003906 3.09375 -2.703125 C 3.050781 -1.390625 3.019531 -0.488281 3 0 L 0.59375 0.0625 L 0.71875 -3.8125 C 0.769531 -5.050781 0.796875 -5.75 0.796875 -5.90625 Z M 0.796875 -5.90625 "/></g></g></g><g fill="#ffbd59" fill-opacity="1"><g transform="translate(111.459568, 36.024435)"><g><path d="M 2.953125 -2.078125 C 2.953125 -1.359375 3.25 -1 3.84375 -1 C 4.164062 -1 4.40625 -1.109375 4.5625 -1.328125 C 4.6875 -1.484375 4.765625 -1.640625 4.796875 -1.796875 C 4.890625 -2.179688 4.9375 -2.742188 4.9375 -3.484375 L 4.9375 -4.140625 C 5.28125 -4.148438 6.0625 -4.171875 7.28125 -4.203125 C 7.28125 -4.054688 7.28125 -3.941406 7.28125 -3.859375 L 7.078125 -0.125 L 5.78125 0.0625 C 5.601562 -0.289062 5.472656 -0.570312 5.390625 -0.78125 C 5.117188 -0.476562 4.773438 -0.242188 4.359375 -0.078125 C 3.941406 0.078125 3.507812 0.15625 3.0625 0.15625 C 2.082031 0.144531 1.351562 -0.0976562 0.875 -0.578125 C 0.613281 -0.847656 0.484375 -1.210938 0.484375 -1.671875 C 0.484375 -2.128906 0.5 -2.613281 0.53125 -3.125 C 0.5625 -3.632812 0.578125 -3.957031 0.578125 -4.09375 C 0.671875 -4.09375 0.925781 -4.101562 1.34375 -4.125 C 1.757812 -4.132812 2.0625 -4.144531 2.25 -4.15625 L 3.0625 -4.203125 C 2.988281 -2.941406 2.953125 -2.234375 2.953125 -2.078125 Z M 2.953125 -2.078125 "/></g></g></g><g fill="#ffbd59" fill-opacity="1"><g transform="translate(119.346294, 36.024435)"><g><path d="M 4.3125 -0.109375 C 3.976562 0.0664062 3.609375 0.15625 3.203125 0.15625 C 2.804688 0.15625 2.457031 0.113281 2.15625 0.03125 C 1.851562 -0.0507812 1.578125 -0.175781 1.328125 -0.34375 C 1.078125 -0.507812 0.875 -0.734375 0.71875 -1.015625 C 0.5625 -1.296875 0.484375 -1.617188 0.484375 -1.984375 C 0.484375 -2.359375 0.554688 -2.703125 0.703125 -3.015625 C 0.835938 -3.328125 1.023438 -3.582031 1.265625 -3.78125 C 1.742188 -4.195312 2.328125 -4.40625 3.015625 -4.40625 C 3.492188 -4.40625 3.890625 -4.34375 4.203125 -4.21875 C 4.503906 -4.09375 4.769531 -3.875 5 -3.5625 L 5.015625 -4.453125 L 6.875 -4.296875 L 6.859375 -0.09375 L 5.3125 0.015625 L 5.0625 -0.796875 C 4.882812 -0.515625 4.632812 -0.285156 4.3125 -0.109375 Z M 2.90625 -2.046875 C 2.90625 -1.785156 2.984375 -1.5625 3.140625 -1.375 C 3.296875 -1.1875 3.515625 -1.09375 3.796875 -1.09375 C 4.085938 -1.09375 4.316406 -1.175781 4.484375 -1.34375 C 4.640625 -1.507812 4.71875 -1.738281 4.71875 -2.03125 C 4.71875 -2.320312 4.640625 -2.550781 4.484375 -2.71875 C 4.316406 -2.894531 4.09375 -2.984375 3.8125 -2.984375 C 3.519531 -2.984375 3.296875 -2.890625 3.140625 -2.703125 C 2.984375 -2.523438 2.90625 -2.304688 2.90625 -2.046875 Z M 2.90625 -2.046875 "/></g></g></g><g fill="#ffbd59" fill-opacity="1"><g transform="translate(126.780706, 36.024435)"><g><path d="M 5.75 -0.1875 C 5.476562 -0.0820312 5.148438 0 4.765625 0.0625 C 4.367188 0.113281 4 0.140625 3.65625 0.140625 C 3.3125 0.140625 2.984375 0.101562 2.671875 0.03125 C 1.703125 -0.21875 1.21875 -0.800781 1.21875 -1.71875 L 1.21875 -1.8125 C 1.226562 -1.894531 1.238281 -2.117188 1.25 -2.484375 C 1.257812 -2.835938 1.265625 -3.035156 1.265625 -3.078125 L 0.84375 -3.078125 C 0.613281 -3.078125 0.453125 -3.085938 0.359375 -3.109375 L 0.625 -4.046875 L 1.375 -4.046875 C 1.40625 -4.335938 1.429688 -4.664062 1.453125 -5.03125 C 1.472656 -5.382812 1.488281 -5.609375 1.5 -5.703125 C 2.507812 -5.796875 3.3125 -5.84375 3.90625 -5.84375 L 3.953125 -5.84375 C 3.953125 -5.800781 3.953125 -5.757812 3.953125 -5.71875 L 3.875 -4.03125 L 5.484375 -4.03125 C 5.609375 -4.03125 5.726562 -4.015625 5.84375 -3.984375 L 5.625 -3.109375 C 5.539062 -3.085938 5.394531 -3.078125 5.1875 -3.078125 L 3.796875 -3.078125 L 3.765625 -1.875 C 3.765625 -1.613281 3.828125 -1.429688 3.953125 -1.328125 C 4.085938 -1.222656 4.28125 -1.171875 4.53125 -1.171875 C 4.78125 -1.171875 5.132812 -1.234375 5.59375 -1.359375 C 5.6875 -1.390625 5.738281 -1.40625 5.75 -1.40625 C 5.757812 -1.332031 5.765625 -1.144531 5.765625 -0.84375 C 5.765625 -0.539062 5.757812 -0.320312 5.75 -0.1875 Z M 5.75 -0.1875 "/></g></g></g><g fill="#ffbd59" fill-opacity="1"><g transform="translate(133.092557, 36.024435)"><g><path d="M 3.03125 0 C 1.863281 0.0078125 1.066406 0.00390625 0.640625 -0.015625 C 0.640625 -0.179688 0.664062 -0.847656 0.71875 -2.015625 C 0.769531 -3.179688 0.8125 -3.894531 0.84375 -4.15625 C 1.507812 -4.195312 2.035156 -4.21875 2.421875 -4.21875 C 2.804688 -4.21875 3.066406 -4.210938 3.203125 -4.203125 Z M 2.515625 -6.59375 C 2.835938 -6.59375 3.082031 -6.515625 3.25 -6.359375 C 3.40625 -6.203125 3.484375 -6.015625 3.484375 -5.796875 C 3.484375 -5.578125 3.394531 -5.394531 3.21875 -5.25 C 2.925781 -5.03125 2.515625 -4.921875 1.984375 -4.921875 C 1.441406 -4.921875 1.109375 -4.988281 0.984375 -5.125 C 0.847656 -5.257812 0.78125 -5.429688 0.78125 -5.640625 C 0.78125 -5.847656 0.859375 -6.023438 1.015625 -6.171875 C 1.304688 -6.453125 1.804688 -6.59375 2.515625 -6.59375 Z M 2.515625 -6.59375 "/></g></g></g><g fill="#ffbd59" fill-opacity="1"><g transform="translate(136.97424, 36.024435)"><g><path d="M 4.46875 -1.296875 C 4.632812 -1.515625 4.71875 -1.785156 4.71875 -2.109375 C 4.71875 -2.429688 4.628906 -2.691406 4.453125 -2.890625 C 4.265625 -3.078125 4.015625 -3.171875 3.703125 -3.171875 C 3.390625 -3.171875 3.148438 -3.0625 2.984375 -2.84375 C 2.828125 -2.625 2.75 -2.363281 2.75 -2.0625 C 2.75 -1.332031 3.070312 -0.96875 3.71875 -0.96875 C 4.039062 -0.96875 4.289062 -1.078125 4.46875 -1.296875 Z M 0.46875 -2.015625 C 0.46875 -3.609375 1.625 -4.40625 3.9375 -4.40625 C 4.789062 -4.40625 5.5 -4.207031 6.0625 -3.8125 C 6.34375 -3.625 6.5625 -3.390625 6.71875 -3.109375 C 6.863281 -2.828125 6.9375 -2.53125 6.9375 -2.21875 C 6.9375 -1.394531 6.660156 -0.789062 6.109375 -0.40625 C 5.546875 -0.03125 4.726562 0.15625 3.65625 0.15625 C 1.53125 0.15625 0.46875 -0.566406 0.46875 -2.015625 Z M 0.46875 -2.015625 "/></g></g></g><g fill="#ffbd59" fill-opacity="1"><g transform="translate(144.379871, 36.024435)"><g><path d="M 4.703125 -2.625 C 4.546875 -2.820312 4.363281 -2.921875 4.15625 -2.921875 C 3.613281 -2.921875 3.273438 -2.691406 3.140625 -2.234375 C 3.054688 -1.953125 3.015625 -1.625 3.015625 -1.25 L 3 0 L 0.53125 0.046875 C 0.539062 -0.242188 0.582031 -1.570312 0.65625 -3.9375 L 2.03125 -4.234375 L 2.46875 -3.390625 C 2.707031 -3.742188 3.046875 -4 3.484375 -4.15625 C 3.910156 -4.320312 4.367188 -4.40625 4.859375 -4.40625 C 5.523438 -4.40625 6.078125 -4.269531 6.515625 -4 C 7.117188 -3.632812 7.425781 -3.039062 7.4375 -2.21875 C 7.4375 -2.113281 7.425781 -1.820312 7.40625 -1.34375 C 7.382812 -0.863281 7.367188 -0.410156 7.359375 0.015625 L 4.90625 0.03125 L 4.9375 -1.921875 C 4.9375 -2.210938 4.859375 -2.445312 4.703125 -2.625 Z M 4.703125 -2.625 "/></g></g></g><g fill="#ffbd59" fill-opacity="1"><g transform="translate(152.295384, 36.024435)"><g/></g></g><g fill="#ffbd59" fill-opacity="1"><g transform="translate(154.273236, 36.024435)"><g><path d="M 0.71875 -0.078125 C 0.71875 -0.140625 0.753906 -0.226562 0.828125 -0.34375 C 0.910156 -0.457031 1.328125 -1.019531 2.078125 -2.03125 C 2.835938 -3.039062 3.242188 -3.613281 3.296875 -3.75 C 3.316406 -3.820312 3.328125 -3.890625 3.328125 -3.953125 C 3.328125 -4.210938 3.066406 -4.34375 2.546875 -4.34375 C 2.191406 -4.34375 1.753906 -4.289062 1.234375 -4.1875 L 1.21875 -4.1875 C 1.1875 -4.1875 1.175781 -4.203125 1.1875 -4.234375 L 1.515625 -5.796875 C 1.671875 -5.847656 1.976562 -5.910156 2.4375 -5.984375 C 2.894531 -6.054688 3.304688 -6.09375 3.671875 -6.09375 C 4.035156 -6.09375 4.328125 -6.078125 4.546875 -6.046875 C 5.054688 -5.984375 5.472656 -5.832031 5.796875 -5.59375 C 6.117188 -5.351562 6.285156 -5 6.296875 -4.53125 L 6.296875 -4.46875 C 6.296875 -3.875 6.023438 -3.179688 5.484375 -2.390625 C 5.273438 -2.085938 5.035156 -1.769531 4.765625 -1.4375 L 5.96875 -1.46875 C 6.09375 -1.46875 6.15625 -1.453125 6.15625 -1.421875 C 6.144531 -1.367188 6.085938 -1.148438 5.984375 -0.765625 C 5.890625 -0.378906 5.828125 -0.113281 5.796875 0.03125 L 0.90625 0.046875 C 0.78125 0.046875 0.71875 0.00390625 0.71875 -0.078125 Z M 0.71875 -0.078125 "/></g></g></g><g fill="#ffbd59" fill-opacity="1"><g transform="translate(161.185432, 36.024435)"><g><path d="M 8.03125 -3.140625 C 8.03125 -1.492188 7.257812 -0.453125 5.71875 -0.015625 C 5.25 0.117188 4.742188 0.1875 4.203125 0.1875 C 3.648438 0.1875 3.15625 0.117188 2.71875 -0.015625 C 2.28125 -0.140625 1.894531 -0.328125 1.5625 -0.578125 C 1.238281 -0.816406 0.984375 -1.125 0.796875 -1.5 C 0.609375 -1.875 0.515625 -2.296875 0.515625 -2.765625 C 0.515625 -3.234375 0.597656 -3.671875 0.765625 -4.078125 C 0.929688 -4.484375 1.175781 -4.835938 1.5 -5.140625 C 1.820312 -5.441406 2.242188 -5.675781 2.765625 -5.84375 C 3.273438 -6.007812 3.816406 -6.09375 4.390625 -6.09375 C 5.859375 -6.09375 6.890625 -5.664062 7.484375 -4.8125 C 7.847656 -4.289062 8.03125 -3.734375 8.03125 -3.140625 Z M 4.0625 -1.40625 C 4.164062 -1.363281 4.300781 -1.34375 4.46875 -1.34375 C 4.625 -1.34375 4.769531 -1.378906 4.90625 -1.453125 C 5.132812 -1.578125 5.289062 -1.785156 5.375 -2.078125 C 5.445312 -2.359375 5.484375 -2.625 5.484375 -2.875 C 5.484375 -3.125 5.476562 -3.304688 5.46875 -3.421875 C 5.457031 -3.546875 5.4375 -3.6875 5.40625 -3.84375 C 5.363281 -3.988281 5.3125 -4.117188 5.25 -4.234375 C 5.1875 -4.335938 5.097656 -4.425781 4.984375 -4.5 C 4.867188 -4.570312 4.726562 -4.609375 4.5625 -4.609375 C 4.394531 -4.609375 4.242188 -4.570312 4.109375 -4.5 C 3.859375 -4.375 3.691406 -4.171875 3.609375 -3.890625 C 3.523438 -3.617188 3.484375 -3.359375 3.484375 -3.109375 C 3.484375 -2.859375 3.484375 -2.679688 3.484375 -2.578125 C 3.492188 -2.460938 3.507812 -2.34375 3.53125 -2.21875 C 3.550781 -2.082031 3.585938 -1.96875 3.640625 -1.875 C 3.679688 -1.78125 3.734375 -1.6875 3.796875 -1.59375 C 3.867188 -1.507812 3.957031 -1.445312 4.0625 -1.40625 Z M 4.0625 -1.40625 "/></g></g></g><g fill="#ffbd59" fill-opacity="1"><g transform="translate(169.734191, 36.024435)"><g><path d="M 0.71875 -0.078125 C 0.71875 -0.140625 0.753906 -0.226562 0.828125 -0.34375 C 0.910156 -0.457031 1.328125 -1.019531 2.078125 -2.03125 C 2.835938 -3.039062 3.242188 -3.613281 3.296875 -3.75 C 3.316406 -3.820312 3.328125 -3.890625 3.328125 -3.953125 C 3.328125 -4.210938 3.066406 -4.34375 2.546875 -4.34375 C 2.191406 -4.34375 1.753906 -4.289062 1.234375 -4.1875 L 1.21875 -4.1875 C 1.1875 -4.1875 1.175781 -4.203125 1.1875 -4.234375 L 1.515625 -5.796875 C 1.671875 -5.847656 1.976562 -5.910156 2.4375 -5.984375 C 2.894531 -6.054688 3.304688 -6.09375 3.671875 -6.09375 C 4.035156 -6.09375 4.328125 -6.078125 4.546875 -6.046875 C 5.054688 -5.984375 5.472656 -5.832031 5.796875 -5.59375 C 6.117188 -5.351562 6.285156 -5 6.296875 -4.53125 L 6.296875 -4.46875 C 6.296875 -3.875 6.023438 -3.179688 5.484375 -2.390625 C 5.273438 -2.085938 5.035156 -1.769531 4.765625 -1.4375 L 5.96875 -1.46875 C 6.09375 -1.46875 6.15625 -1.453125 6.15625 -1.421875 C 6.144531 -1.367188 6.085938 -1.148438 5.984375 -0.765625 C 5.890625 -0.378906 5.828125 -0.113281 5.796875 0.03125 L 0.90625 0.046875 C 0.78125 0.046875 0.71875 0.00390625 0.71875 -0.078125 Z M 0.71875 -0.078125 "/></g></g></g><g fill="#ffbd59" fill-opacity="1"><g transform="translate(176.646387, 36.024435)"><g><path d="M 3.890625 -4.515625 L 3.21875 -4.53125 L 3.21875 -4 C 4.09375 -3.90625 4.691406 -3.785156 5.015625 -3.640625 C 5.335938 -3.503906 5.570312 -3.332031 5.71875 -3.125 C 5.851562 -2.90625 5.921875 -2.648438 5.921875 -2.359375 C 5.921875 -2.066406 5.890625 -1.816406 5.828125 -1.609375 C 5.710938 -1.203125 5.492188 -0.878906 5.171875 -0.640625 C 4.578125 -0.203125 3.671875 0.0507812 2.453125 0.125 C 1.921875 0.164062 1.320312 0.1875 0.65625 0.1875 L 0.671875 -1.53125 C 0.671875 -1.53125 0.753906 -1.535156 0.921875 -1.546875 C 1.085938 -1.546875 1.289062 -1.5625 1.53125 -1.59375 C 1.769531 -1.613281 2.007812 -1.648438 2.25 -1.703125 C 2.5 -1.753906 2.707031 -1.832031 2.875 -1.9375 C 3.039062 -2.050781 3.125 -2.179688 3.125 -2.328125 C 3.125 -2.503906 3 -2.632812 2.75 -2.71875 C 2.382812 -2.832031 1.785156 -2.890625 0.953125 -2.890625 L 0.921875 -3.078125 L 1.09375 -5.921875 L 5.734375 -5.9375 L 5.703125 -5.078125 C 5.691406 -4.703125 5.085938 -4.515625 3.890625 -4.515625 Z M 3.890625 -4.515625 "/></g></g></g><g clip-path="url(#10fa39f75b)"><g clip-path="url(#8f65ab4f00)"><path fill="#ffbd59" d="M 189.386719 4.285156 L 227.96875 4.285156 L 227.96875 37.992188 L 189.386719 37.992188 Z M 189.386719 4.285156 " fill-opacity="1" fill-rule="nonzero"/></g></g></svg>
